# xmcd
#
# Track frame offsets: 
#        150
#        16868
#        32054
#        47333
#        71136
#        87875
#        119048
#        133576
#        158092
#        171103
#
# Disc length: 2638 seconds
#
# Revision: 1
# Processed by: cddbd v1.5.2PL0 Copyright (c) Steve Scherf et al.
# Submitted via: ExactAudioCopy v1.0b3
#
DISCID=7d0a4c0a
DTITLE=Tin Wheeler and The Sound Shufflers - Stratisfier  43'56''
DYEAR=2001
DGENRE=Blues/Rock
TTITLE0=Stratisfier
TTITLE1=Good Looking Stranger
TTITLE2=Mindbender
TTITLE3=Guitar String Blues
TTITLE4=She Caught The Katy"and Left Me a Mule to Ride"
TTITLE5=She's So Strong
TTITLE6=Necessary to Go
TTITLE7=Automatic
TTITLE8=Give Me Back My Wig
TTITLE9=Primed
EXTD=
EXTT0=
EXTT1=
EXTT2=
EXTT3=
EXTT4=
EXTT5=
EXTT6=
EXTT7=
EXTT8=
EXTT9=
PLAYORDER=
